<?xml version="1.0" encoding="UTF-8" standalone="no"?>
<!-- Created with Inkscape (http://www.inkscape.org/) -->

<svg
   width="42.769268mm"
   height="35.307899mm"
   viewBox="0 0 42.769268 35.307899"
   version="1.1"
   id="svg1"
   inkscape:version="1.4.3 (0d15f75042, 2025-12-25)"
   sodipodi:docname="logo.svg"
   xmlns:inkscape="http://www.inkscape.org/namespaces/inkscape"
   xmlns:sodipodi="http://sodipodi.sourceforge.net/DTD/sodipodi-0.dtd"
   xmlns="http://www.w3.org/2000/svg"
   xmlns:svg="http://www.w3.org/2000/svg">
  <sodipodi:namedview
     id="namedview1"
     pagecolor="#ffffff"
     bordercolor="#000000"
     borderopacity="0.25"
     inkscape:showpageshadow="2"
     inkscape:pageopacity="0.0"
     inkscape:pagecheckerboard="0"
     inkscape:deskcolor="#d1d1d1"
     inkscape:document-units="mm"
     inkscape:zoom="1.0708053"
     inkscape:cx="-155.02352"
     inkscape:cy="-105.52806"
     inkscape:window-width="3440"
     inkscape:window-height="1403"
     inkscape:window-x="0"
     inkscape:window-y="0"
     inkscape:window-maximized="1"
     inkscape:current-layer="layer1" />
  <defs
     id="defs1" />
  <g
     inkscape:label="Layer 1"
     inkscape:groupmode="layer"
     id="layer1"
     transform="translate(-146.05,-176.47708)">
    <path
       style="font-weight:900;font-size:28.2223px;font-family:'Source Sans 3';-inkscape-font-specification:'Source Sans 3 Heavy';opacity:0.4;mix-blend-mode:normal;fill:#c25854;fill-opacity:0.811765;stroke:#c25854;stroke-width:0.5;stroke-linecap:round;stroke-opacity:1"
       d="m 170.58308,211.53498 h 4.34623 v -5.41869 c 0,-1.86267 -0.39511,-5.24934 -0.62089,-7.11202 h 0.11289 l 1.46756,4.96713 2.25778,6.06779 h 2.59646 l 2.25778,-6.06779 1.524,-4.96713 h 0.11289 c -0.22578,1.86268 -0.62089,5.24935 -0.62089,7.11202 v 5.41869 h 4.40268 v -18.3445 h -5.1929 l -2.6529,7.50713 c -0.33867,1.01601 -0.62089,2.1449 -0.95956,3.21735 h -0.11289 c -0.33866,-1.07245 -0.62089,-2.20134 -0.95955,-3.21735 l -2.76579,-7.50713 h -5.1929 z"
       id="path60" />
    <path
       style="font-weight:900;font-size:28.2223px;font-family:'Source Sans 3';-inkscape-font-specification:'Source Sans 3 Heavy';opacity:0.6;mix-blend-mode:normal;fill:#c25854;fill-opacity:0.811765;stroke:#c25854;stroke-width:0.5;stroke-linecap:round;stroke-opacity:1"
       d="m 161.374,211.53498 h 12.13559 v -4.06402 h -7.28136 v -3.27378 h 5.98313 v -4.06401 h -5.98313 v -2.87868 h 6.99913 v -4.06401 H 161.374 Z"
       id="path59" />
    <path
       style="font-weight:900;font-size:28.2223px;font-family:'Source Sans 3';-inkscape-font-specification:'Source Sans 3 Heavy';opacity:0.8;mix-blend-mode:normal;fill:#c25854;fill-opacity:0.811765;stroke:#c25854;stroke-width:0.5;stroke-linecap:round;stroke-opacity:1"
       d="m 146.30485,211.53498 h 4.34623 v -5.41869 c 0,-1.86267 -0.39511,-5.24934 -0.62089,-7.11202 h 0.11289 l 1.46756,4.96713 2.25778,6.06779 h 2.59645 l 2.25779,-6.06779 1.524,-4.96713 h 0.11289 c -0.22578,1.86268 -0.62089,5.24935 -0.62089,7.11202 v 5.41869 h 4.40268 v -18.3445 h -5.1929 l -2.6529,7.50713 c -0.33867,1.01601 -0.62089,2.1449 -0.95956,3.21735 h -0.11289 c -0.33866,-1.07245 -0.62089,-2.20134 -0.95956,-3.21735 l -2.76578,-7.50713 h -5.1929 z"
       id="path58" />
    <path
       style="font-weight:900;font-size:28.2223px;font-family:'Source Sans 3';-inkscape-font-specification:'Source Sans 3 Heavy';opacity:0.35;mix-blend-mode:normal;fill:#2fcad0;fill-opacity:0.811765;stroke:#2fcad0;stroke-width:0.5;stroke-linecap:round;stroke-opacity:1"
       d="m 182.61702,195.74891 c 2.25779,0 4.23335,-0.84666 5.87024,-2.65289 l -2.42712,-2.87868 c -0.73378,0.73378 -1.80622,1.35467 -3.10445,1.35467 -2.51178,0 -4.23334,-1.91911 -4.23334,-5.36223 0,-3.27379 1.91911,-5.3058 4.00756,-5.3058 1.24178,0 2.1449,0.39512 3.04801,1.18534 l 2.54001,-2.93512 c -1.29823,-1.35467 -3.27379,-2.42712 -5.70091,-2.42712 -4.62845,0 -8.8618,3.49957 -8.8618,9.65203 0,6.26535 4.12045,9.3698 8.8618,9.3698 z"
       id="path57" />
    <path
       style="font-weight:900;font-size:28.2223px;font-family:'Source Sans 3';-inkscape-font-specification:'Source Sans 3 Heavy';opacity:0.4;mix-blend-mode:normal;fill:#2fcad0;fill-opacity:0.811765;stroke:#2fcad0;stroke-width:0.5;stroke-linecap:round;stroke-opacity:1"
       d="m 170.17886,195.41025 h 4.85424 v -18.3445 h -4.85424 z"
       id="path56" />
    <path
       style="font-weight:900;font-size:28.2223px;font-family:'Source Sans 3';-inkscape-font-specification:'Source Sans 3 Heavy';opacity:0.6;mix-blend-mode:normal;fill:#2fcad0;fill-opacity:0.811765;stroke:#2fcad0;stroke-width:0.5;stroke-linecap:round;stroke-opacity:1"
       d="m 157.59171,195.41025 h 4.85424 v -6.15246 h 1.86267 l 3.1609,6.15246 h 5.41868 l -3.97935,-7.11202 c 1.77801,-0.95956 2.96335,-2.68112 2.96335,-5.30579 0,-4.57202 -3.38668,-5.92669 -7.3378,-5.92669 h -6.94269 z m 4.85424,-9.9907 v -4.51557 h 1.74978 c 1.91912,0 2.93512,0.50801 2.93512,2.08846 0,1.58044 -1.016,2.42711 -2.93512,2.42711 z"
       id="path55" />
    <path
       style="font-weight:900;font-size:28.2223px;font-family:'Source Sans 3';-inkscape-font-specification:'Source Sans 3 Heavy';opacity:0.8;mix-blend-mode:normal;fill:#2fcad0;fill-opacity:0.811765;stroke:#2fcad0;stroke-width:0.5;stroke-linecap:round;stroke-opacity:1"
       d="m 146.3,195.41025 h 7.16847 c 3.95112,0 7.22491,-1.69334 7.22491,-5.64446 0,-2.31423 -1.18534,-3.55601 -3.1609,-4.06401 v -0.11289 c 1.46756,-0.56445 2.31423,-2.1449 2.31423,-3.95113 0,-3.61245 -3.10446,-4.57201 -6.94269,-4.57201 H 146.3 Z m 4.85424,-11.17603 v -3.44312 h 1.63689 c 1.58045,0 2.31423,0.45155 2.31423,1.58044 0,1.1289 -0.73378,1.86268 -2.31423,1.86268 z m 0,7.45068 v -3.89467 h 1.97556 c 1.91912,0 2.82223,0.508 2.82223,1.86267 0,1.35467 -0.90311,2.032 -2.82223,2.032 z"
       id="text54" />
  </g>
</svg>
