<?xml version="1.0" encoding="UTF-8" standalone="no"?>
<!-- Created with Inkscape (http://www.inkscape.org/) -->

<svg
   version="1.1"
   id="svg1"
   width="427.27313"
   height="188.42484"
   viewBox="0 0 427.27314 188.42484"
   sodipodi:docname="logo-kip.svg"
   inkscape:version="1.4.3 (0d15f75042, 2025-12-25)"
   xmlns:inkscape="http://www.inkscape.org/namespaces/inkscape"
   xmlns:sodipodi="http://sodipodi.sourceforge.net/DTD/sodipodi-0.dtd"
   xmlns="http://www.w3.org/2000/svg"
   xmlns:svg="http://www.w3.org/2000/svg">
  <defs
     id="defs1" />
  <sodipodi:namedview
     id="namedview1"
     pagecolor="#ffffff"
     bordercolor="#000000"
     borderopacity="0.25"
     inkscape:showpageshadow="2"
     inkscape:pageopacity="0.0"
     inkscape:pagecheckerboard="0"
     inkscape:deskcolor="#d1d1d1"
     showgrid="false"
     inkscape:zoom="1.5441955"
     inkscape:cx="253.20628"
     inkscape:cy="208.52282"
     inkscape:window-width="1920"
     inkscape:window-height="1017"
     inkscape:window-x="0"
     inkscape:window-y="0"
     inkscape:window-maximized="1"
     inkscape:current-layer="g1">
    <inkscape:page
       x="0"
       y="0"
       inkscape:label="1"
       id="page1"
       width="427.27313"
       height="188.42484"
       margin="0"
       bleed="0" />
  </sodipodi:namedview>
  <g
     id="g1"
     inkscape:groupmode="layer"
     inkscape:label="1"
     transform="translate(-0.33348733,-0.50105142)">
    <path
       id="path1"
       d="M 1410.8,709.02 C 1410.8,322.871 1097.76,9.82812 711.613,9.82812 325.465,9.82812 12.4219,322.871 12.4219,709.02 c 0,386.15 313.0431,699.19 699.1911,699.19 386.147,0 699.187,-313.04 699.187,-699.19"
       style="fill:#c6c6c6;fill-opacity:1;fill-rule:evenodd;stroke:#ffffff;stroke-opacity:1"
       transform="matrix(0.13333333,0,0,-0.13333333,0,189.33333)" />
    <path
       id="path2"
       d="m 416.184,80.3711 c 19.308,42.8049 29.296,89.2339 29.296,136.1909 0,182.915 -148.289,331.2 -331.203,331.2 -26.4684,0 -52.8434,-3.176 -78.5543,-9.45"
       style="fill:none;stroke:#ffffff;stroke-width:18.897;stroke-linecap:butt;stroke-linejoin:miter;stroke-miterlimit:10;stroke-dasharray:none;stroke-opacity:1"
       transform="matrix(0.13333333,0,0,-0.13333333,0,189.33333)" />
    <path
       id="path3"
       d="m 1011.42,80.332 c -20.315,43.566 -30.842,91.063 -30.842,139.129 0,181.836 147.412,329.246 329.252,329.246 27.69,0 55.27,-3.496 82.08,-10.395"
       style="fill:none;stroke:#ffffff;stroke-width:18.897;stroke-linecap:butt;stroke-linejoin:miter;stroke-miterlimit:10;stroke-dasharray:none;stroke-opacity:1"
       transform="matrix(0.13333333,0,0,-0.13333333,0,189.33333)" />
    <path
       id="path4"
       d="m 540.93,31.8906 c 16.172,62.793 24.355,127.3864 24.355,192.2304 0,325.383 -204.344,615.719 -510.6366,725.527"
       style="fill:none;stroke:#ffffff;stroke-width:18.897;stroke-linecap:butt;stroke-linejoin:miter;stroke-miterlimit:10;stroke-dasharray:none;stroke-opacity:1"
       transform="matrix(0.13333333,0,0,-0.13333333,0,189.33333)" />
    <path
       id="path5"
       d="m 652.984,14.8945 c 5.739,68.0157 8.614,136.2465 8.614,204.5005 0,387.019 -92.356,768.453 -269.387,1112.605"
       style="fill:none;stroke:#ffffff;stroke-width:18.897;stroke-linecap:butt;stroke-linejoin:miter;stroke-miterlimit:10;stroke-dasharray:none;stroke-opacity:1"
       transform="matrix(0.13333333,0,0,-0.13333333,0,189.33333)" />
    <path
       id="path6"
       d="m 770.191,14.8672 c -5.707,67.918 -8.566,136.0548 -8.566,204.2148 0,387.035 92.109,768.516 268.715,1112.908"
       style="fill:none;stroke:#ffffff;stroke-width:18.897;stroke-linecap:butt;stroke-linejoin:miter;stroke-miterlimit:10;stroke-dasharray:none;stroke-opacity:1"
       transform="matrix(0.13333333,0,0,-0.13333333,0,189.33333)" />
    <path
       id="path7"
       d="M 881.66,33.7852 C 865.949,95.6875 858,159.312 858,223.176 c 0,326.941 206.49,618.234 514.99,726.492"
       style="fill:none;stroke:#ffffff;stroke-width:18.897;stroke-linecap:butt;stroke-linejoin:miter;stroke-miterlimit:10;stroke-dasharray:none;stroke-opacity:1"
       transform="matrix(0.13333333,0,0,-0.13333333,0,189.33333)" />
    <path
       id="path8"
       d="M 1413.32,709.648 C 1413.32,320.715 1098.03,5.41797 709.094,5.41797 320.16,5.41797 4.86328,320.715 4.86328,709.648 c 0,388.932 315.29672,704.232 704.23072,704.232 388.936,0 704.226,-315.3 704.226,-704.232 z"
       style="fill:none;stroke:#ffffff;stroke-width:4.72425;stroke-linecap:butt;stroke-linejoin:miter;stroke-miterlimit:10;stroke-dasharray:none;stroke-opacity:1"
       transform="matrix(0.13333333,0,0,-0.13333333,0,189.33333)" />
    <text
       xml:space="preserve"
       style="font-style:normal;font-variant:normal;font-weight:100;font-stretch:normal;font-size:42.6667px;font-family:'IBM Plex Sans';-inkscape-font-specification:'IBM Plex Sans Thin';text-align:end;writing-mode:lr-tb;direction:ltr;text-anchor:end;opacity:0.9;fill:none;fill-opacity:0.7;stroke:#ffffff;stroke-width:2.26772;stroke-linecap:round;stroke-dasharray:none;stroke-opacity:1"
       x="427.60663"
       y="50.253422"
       id="text8"><tspan
         sodipodi:role="line"
         id="tspan8"
         x="427.60663"
         y="50.253422"
         style="font-style:normal;font-variant:normal;font-weight:normal;font-stretch:normal;font-size:42.6667px;font-family:Sans;-inkscape-font-specification:Sans;fill:#ffffff;fill-opacity:1;stroke:none;stroke-width:2.26772;stroke-dasharray:none;stroke-opacity:1">Kirchhoff-</tspan><tspan
         sodipodi:role="line"
         x="427.60663"
         y="105.76279"
         style="font-style:normal;font-variant:normal;font-weight:normal;font-stretch:normal;font-size:42.6667px;font-family:Sans;-inkscape-font-specification:Sans;fill:#ffffff;fill-opacity:1;stroke:none;stroke-width:2.26772;stroke-dasharray:none;stroke-opacity:1"
         id="tspan10">Institute</tspan><tspan
         sodipodi:role="line"
         x="439.46796"
         y="161.27217"
         style="font-style:normal;font-variant:normal;font-weight:normal;font-stretch:normal;font-size:42.6667px;font-family:Sans;-inkscape-font-specification:Sans;fill:#ffffff;fill-opacity:1;stroke:none;stroke-width:2.26772;stroke-dasharray:none;stroke-opacity:1"
         id="tspan11">for Physics </tspan></text>
  </g>
</svg>
